<svg width="120" height="264" viewBox="0 0 34 178" fill="none" xmlns="http://www.w3.org/2000/svg">
<path d="M6.12003 0.72998H0.790039V22.56H6.12003V0.72998Z" fill="#262626"/>
<path d="M19.6601 0.72998H14.3301V22.56H19.6601V0.72998Z" fill="#262626"/>
<path d="M33.2001 0.72998H27.8701V22.56H33.2001V0.72998Z" fill="#262626"/>
<path d="M6.12003 31.8199H0.790039V53.6499H6.12003V31.8199Z" fill="#262626"/>
<path d="M19.6601 31.8199H14.3301V53.6499H19.6601V31.8199Z" fill="#262626"/>
<path d="M19.6601 62.9H14.3301V84.73H19.6601V62.9Z" fill="#262626"/>
<path d="M33.2001 62.9H27.8701V84.73H33.2001V62.9Z" fill="#262626"/>
<path d="M6.12003 93.99H0.790039V115.82H6.12003V93.99Z" fill="#262626"/>
<path d="M33.2001 93.99H27.8701V115.82H33.2001V93.99Z" fill="#262626"/>
<path d="M6.12003 125.08H0.790039V146.91H6.12003V125.08Z" fill="#262626"/>
<path d="M19.6601 125.08H14.3301V146.91H19.6601V125.08Z" fill="#262626"/>
<path d="M6.12003 156.17H0.790039V178H6.12003V156.17Z" fill="#262626"/>
<path d="M19.6601 156.17H14.3301V178H19.6601V156.17Z" fill="#262626"/>
<path d="M33.2001 156.17H27.8701V178H33.2001V156.17Z" fill="#262626"/>
</svg>
