<svg width="120" height="264" viewBox="0 0 34 178" fill="none" xmlns="http://www.w3.org/2000/svg">
<path d="M27.8785 177.27H33.2085V155.44H27.8785L27.8785 177.27Z" fill="#262626"/>
<path d="M14.3401 177.27H19.6702L19.6702 155.44H14.3401L14.3401 177.27Z" fill="#262626"/>
<path d="M0.801849 177.27H6.13184L6.13184 155.44H0.801849L0.801849 177.27Z" fill="#262626"/>
<path d="M27.8785 146.185H33.2085V124.355H27.8785L27.8785 146.185Z" fill="#262626"/>
<path d="M14.3401 146.185H19.6702L19.6702 124.355H14.3401L14.3401 146.185Z" fill="#262626"/>
<path d="M14.3401 115.099H19.6702L19.6702 93.2693H14.3401L14.3401 115.099Z" fill="#262626"/>
<path d="M0.801849 115.099H6.13184L6.13184 93.2693H0.801849L0.801849 115.099Z" fill="#262626"/>
<path d="M27.8785 84.0037H33.2085V62.1737H27.8785L27.8785 84.0037Z" fill="#262626"/>
<path d="M0.801849 84.0037H6.13184L6.13184 62.1737H0.801849L0.801849 84.0037Z" fill="#262626"/>
<path d="M27.8785 52.9183H33.2085V31.0883H27.8785L27.8785 52.9183Z" fill="#262626"/>
<path d="M14.3401 52.9183H19.6702L19.6702 31.0883H14.3401L14.3401 52.9183Z" fill="#262626"/>
<path d="M27.8785 21.8327H33.2085V0.00270271H27.8785L27.8785 21.8327Z" fill="#262626"/>
<path d="M14.3401 21.8327H19.6702L19.6702 0.00270271H14.3401L14.3401 21.8327Z" fill="#262626"/>
<path d="M0.801849 21.8327H6.13184L6.13184 0.00270271H0.801849L0.801849 21.8327Z" fill="#262626"/>
</svg>
