<svg width="372" height="372" viewBox="0 0 172 172" fill="none" xmlns="http://www.w3.org/2000/svg">
<g id="Group">
<g id="Group_2">
<path id="Vector" d="M154.4 138.07L153.55 137.42C164.86 122.57 170.84 104.83 170.84 86.11C170.84 57.11 156.25 30.43 131.81 14.74L132.39 13.84C157.14 29.72 171.91 56.74 171.91 86.11C171.91 105.06 165.85 123.03 154.4 138.07Z" fill="#FFFCF9"/>
</g>
<g id="Group_3">
<path id="Vector_2" d="M86.1 171.92C38.78 171.92 0.280029 133.42 0.280029 86.1C0.280029 38.78 38.78 0.280014 86.1 0.280014V1.35001C39.37 1.35001 1.36003 39.37 1.36003 86.09C1.36003 132.82 39.38 170.83 86.1 170.83C100.22 170.83 114.2 167.29 126.52 160.59L127.03 161.53C114.55 168.34 100.39 171.92 86.1 171.92Z" fill="#FFFCF9"/>
</g>
<g id="Group_4">
<path id="Vector_3" d="M45.4901 152.16C22.3701 137.92 8.57007 113.22 8.57007 86.1H10.7201C10.7201 112.47 24.1401 136.48 46.6201 150.33L45.4901 152.16Z" fill="#FFFCF9"/>
</g>
<g id="Group_5">
<path id="Vector_4" d="M86.1 163.64C77.6 163.64 69.25 162.27 61.27 159.58L61.96 157.55C69.72 160.17 77.84 161.5 86.11 161.5C124.94 161.5 157.19 132.41 161.1 93.83L163.24 94.05C159.2 133.71 126.04 163.64 86.1 163.64Z" fill="#FFFCF9"/>
</g>
<g id="Group_6">
<path id="Vector_5" d="M160.52 74.06C157.71 56.57 148.73 40.54 135.22 28.93C121.57 17.19 104.12 10.73 86.1 10.73C71.55 10.73 57.43 14.88 45.26 22.74C31.08 31.9 20.26 45.7 14.79 61.6L12.76 60.9C18.38 44.55 29.51 30.36 44.09 20.94C56.61 12.86 71.13 8.59001 86.09 8.59001C104.63 8.59001 122.57 15.24 136.61 27.31C150.5 39.25 159.74 55.74 162.63 73.73L160.52 74.06Z" fill="#FFFCF9"/>
</g>
<g id="Group_7">
<path id="Vector_6" d="M86.1001 142.1C55.2201 142.1 30.1001 116.98 30.1001 86.1C30.1001 73.6 34.1301 61.78 41.7401 51.92L43.4401 53.23C36.1201 62.72 32.2501 74.08 32.2501 86.1C32.2501 115.79 56.4101 139.95 86.1001 139.95C91.3701 139.95 96.5801 139.19 101.57 137.69L102.19 139.75C96.9901 141.32 91.5701 142.1 86.1001 142.1Z" fill="#FFFCF9"/>
</g>
<g id="Group_8">
<path id="Vector_7" d="M123.92 127.4L122.47 125.82C133.58 115.64 139.95 101.17 139.95 86.11C139.95 75.51 136.87 65.25 131.05 56.44L132.84 55.26C138.9 64.42 142.1 75.09 142.1 86.12C142.09 101.77 135.47 116.82 123.92 127.4Z" fill="#FFFCF9"/>
</g>
<g id="Group_9">
<path id="Vector_8" d="M119.6 43.94C109.99 36.29 98.4001 32.25 86.1001 32.25C75.3101 32.25 64.9001 35.43 55.9901 41.45L54.79 39.67C64.05 33.41 74.8801 30.11 86.1001 30.11C98.9001 30.11 110.95 34.31 120.94 42.27L119.6 43.94Z" fill="#FFFCF9"/>
</g>
<g id="Group_10">
<path id="Vector_9" d="M86.1 132.48C78.56 132.48 71.07 130.63 64.45 127.13L64.95 126.18C71.42 129.6 78.7299 131.41 86.09 131.41C106.42 131.41 124.38 117.74 129.77 98.16L130.8 98.45C125.3 118.49 106.91 132.48 86.1 132.48Z" fill="#FFFCF9"/>
</g>
<g id="Group_11">
<path id="Vector_10" d="M53.31 118.91C44.55 110.15 39.72 98.5 39.72 86.11C39.72 60.54 60.52 39.73 86.1 39.73C111.67 39.73 132.48 60.54 132.48 86.11H131.41C131.41 61.13 111.09 40.81 86.11 40.81C61.13 40.81 40.81 61.13 40.81 86.11C40.81 98.21 45.52 109.59 54.09 118.15L53.31 118.91Z" fill="#FFFCF9"/>
</g>
<g id="Group_12">
<path id="Vector_11" d="M86.1 114.95C70.19 114.95 57.25 102.01 57.25 86.1C57.25 70.19 70.19 57.25 86.1 57.25V59.4C71.38 59.4 59.4 71.38 59.4 86.1C59.4 100.82 71.38 112.8 86.1 112.8C100.82 112.8 112.8 100.82 112.8 86.1H114.95C114.94 102.01 102 114.95 86.1 114.95Z" fill="#FFFCF9"/>
</g>
<g id="Group_13">
<path id="Vector_12" d="M86.1 100.44C78.19 100.44 71.76 94.01 71.76 86.1H72.83C72.83 93.41 78.78 99.36 86.09 99.36C93.4 99.36 99.35 93.41 99.35 86.1C99.35 78.79 93.4 72.84 86.09 72.84C82.03 72.84 78.25 74.66 75.71 77.84L74.87 77.17C77.61 73.73 81.7 71.76 86.09 71.76C94 71.76 100.43 78.19 100.43 86.1C100.43 94.01 94 100.44 86.1 100.44Z" fill="#FFFCF9"/>
</g>
</g>
</svg>
